<svg width="17" height="18" fill="none" xmlns="http://www.w3.org/2000/svg"><path d="M8.184 12.106a3.193 3.193 0 100-6.386 3.193 3.193 0 000 6.386v0z" stroke="#81FE62" stroke-width="1.5" stroke-linecap="round" stroke-linejoin="round"/><path d="M8.184 16.098v-3.992m7.184-6.902v7.419a.478.478 0 01-.246.419l-6.705 3.725a.48.48 0 01-.465 0l-6.705-3.725a.478.478 0 01-.247-.42V5.205a.479.479 0 01.247-.418L7.952 1.06a.479.479 0 01.465 0l6.705 3.726a.479.479 0 01.246.418v0zM1.421 5.157l3.89 2.16-3.89-2.16zm13.548-.013l-3.911 2.173 3.911-2.173z" stroke="#81FE62" stroke-width="1.5" stroke-linecap="round" stroke-linejoin="round"/></svg>