<svg xmlns="http://www.w3.org/2000/svg" viewBox="0 0 256 256"><path class="prefix__cls-1" d="M105.92 205.52l13.22 40.9c2 6.19 10.76 6.19 12.76 0l13.22-40.9c4.54-14.13 12.4-27 22.92-37.48a94.129 94.129 0 0137.48-22.92l40.88-13.22c6.19-2 6.19-10.76 0-12.76l-40.88-13.22c-14.13-4.54-27-12.4-37.48-22.92a94.129 94.129 0 01-22.92-37.48L131.9 4.64c-2-6.19-10.76-6.19-12.76 0l-13.22 40.9c-4.54 14.13-12.4 27-22.92 37.48-10.51 10.51-23.35 18.34-37.48 22.92l-40.88 13.2c-6.19 2-6.19 10.76 0 12.76l40.9 13.22c28.64 9.23 51.09 31.71 60.37 60.4z"/></svg>