<svg width="14" height="19" fill="none" xmlns="http://www.w3.org/2000/svg"><path d="M12.25 6.333h-.875v-1.81C11.375 2.028 9.415 0 7 0S2.625 2.027 2.625 4.524v1.81H1.75C.787 6.333 0 7.147 0 8.142v9.047C0 18.186.787 19 1.75 19h10.5c.963 0 1.75-.814 1.75-1.81V8.143c0-.995-.787-1.81-1.75-1.81zm-7.875-1.81C4.375 3.023 5.548 1.81 7 1.81c1.453 0 2.625 1.212 2.625 2.714v1.81h-5.25v-1.81zm7.875 12.668H1.75V8.143h10.5v9.047zM7 14.476c.963 0 1.75-.814 1.75-1.81 0-.995-.787-1.809-1.75-1.809s-1.75.814-1.75 1.81c0 .995.787 1.81 1.75 1.81z" fill="#12FF3C"/></svg>