<svg width="16" height="10" fill="none" xmlns="http://www.w3.org/2000/svg"><path d="M3.11 1.818c2.476-2.424 6.49-2.424 8.968 0l.298.292a.304.304 0 010 .439l-1.018.999a.16.16 0 01-.225 0l-.41-.4c-1.726-1.692-4.528-1.692-6.254 0l-.44.429a.16.16 0 01-.223 0l-1.022-1a.304.304 0 010-.438l.327-.32zm11.076 2.063l.906.887a.304.304 0 010 .439l-4.09 4.006a.321.321 0 01-.448 0L7.649 6.37a.083.083 0 00-.112 0L4.635 9.213a.321.321 0 01-.448 0L.094 5.21a.304.304 0 010-.439L1 3.884a.321.321 0 01.448 0l2.905 2.844c.032.029.08.029.112 0l2.902-2.844a.321.321 0 01.448 0l2.905 2.844c.032.029.08.029.112 0l2.905-2.844a.318.318 0 01.449-.003z" fill="#12FF3C"/></svg>