<svg width="58" height="77" fill="none" xmlns="http://www.w3.org/2000/svg"><path d="M29.32 14.52c6.318 0 11.44-3.25 11.44-7.26S35.638 0 29.32 0C23 0 17.877 3.25 17.877 7.26S23 14.52 29.319 14.52z" fill="url(#prefix__paint0_linear_1946_3728)"/><path d="M29.319 19.47c15.797 0 28.603-3.25 28.603-7.26 0-4.009-12.806-7.259-28.603-7.259-15.797 0-28.603 3.25-28.603 7.26s12.806 7.26 28.603 7.26z" fill="url(#prefix__paint1_radial_1946_3728)"/><path d="M22.444 11.056c-2.13-1.026-3.822-1.95-5.08-2.796-1.23-.82-2.026-1.565-2.385-2.18-.077-.154-.282-.206-.41-.103-.154.077-.206.282-.103.41.41.719 1.283 1.514 2.565 2.386 1.283.847 2.976 1.796 5.157 2.848.153.076.333 0 .41-.154.077-.154 0-.36-.154-.41z" fill="url(#prefix__paint2_linear_1946_3728)"/><path d="M43.761 5.951c-.154-.077-.333-.025-.41.103-.36.641-1.154 1.36-2.386 2.18-1.257.847-2.95 1.77-5.079 2.797-.154.077-.205.256-.154.41.077.154.257.205.41.154 2.155-1.026 3.874-1.975 5.157-2.847 1.308-.873 2.155-1.668 2.565-2.386.103-.154.051-.334-.102-.41z" fill="url(#prefix__paint3_linear_1946_3728)"/><path d="M56.741 10.133c-.615.641-2 1.206-4.181 1.719-2.232.513-5.259.949-9.081 1.334-.18.025-.282.154-.282.333.025.18.154.282.333.282 3.848-.359 6.9-.82 9.158-1.334 2.31-.538 3.797-1.154 4.49-1.898.128-.128.102-.308 0-.436a.317.317 0 00-.437 0z" fill="url(#prefix__paint4_linear_1946_3728)"/><path d="M15.312 13.185c-3.822-.359-6.849-.795-9.08-1.333-2.181-.514-3.566-1.078-4.182-1.72a.295.295 0 00-.436 0 .295.295 0 000 .437c.692.718 2.18 1.36 4.489 1.898 2.257.513 5.31.975 9.158 1.334.18.026.308-.102.334-.282 0-.18-.129-.334-.283-.334z" fill="url(#prefix__paint5_linear_1946_3728)"/><path fill-rule="evenodd" clip-rule="evenodd" d="M29.319 10.671c-9.158 0-16.597 1.899-16.597 4.207 0 2.335 7.439 4.207 16.597 4.207 9.158 0 16.597-1.898 16.597-4.207-.025-2.334-7.439-4.207-16.597-4.207z" fill="#008B14"/><path fill-rule="evenodd" clip-rule="evenodd" d="M29.319 13.827c-8.03 0-14.545 1.668-14.545 3.694 0 2.052 6.516 3.694 14.545 3.694 8.03 0 14.545-1.667 14.545-3.694-.025-2.026-6.541-3.694-14.545-3.694z" fill="#005E0E"/><path d="M29.319 22.267c5.993 0 10.851-1.23 10.851-2.745 0-1.516-4.858-2.745-10.851-2.745-5.993 0-10.851 1.229-10.851 2.745s4.858 2.745 10.85 2.745z" fill="#002B07"/><path fill-rule="evenodd" clip-rule="evenodd" d="M29.32 18.778c-4.208 0-7.62.59-7.62 1.308 0 .718 3.412 1.308 7.62 1.308 4.206 0 7.618-.59 7.618-1.308-.026-.718-3.438-1.308-7.619-1.308z" fill="url(#prefix__paint6_radial_1946_3728)"/><path fill-rule="evenodd" clip-rule="evenodd" d="M34.73 20.407h-2.36c-.23 1.1-1.307 1.987-2.667 2.135a3.433 3.433 0 01-.436.042c-.257.022-.539.022-.795.022-1.565 0-2.848-.952-3.053-2.2h-2.411L12.54 48.444c-3.489 9.345-6.977 18.69-10.44 28.036h53.563c-3.49-9.346-6.978-18.69-10.441-28.036-3.514-9.346-7.029-18.69-10.492-28.036z" fill="url(#prefix__paint7_linear_1946_3728)"/><path fill-rule="evenodd" clip-rule="evenodd" d="M32.422 20.407h-7.183l-6.387 28.036c-2.13 9.345-4.259 18.69-6.362 28.036H45.17c-2.129-9.346-4.258-18.69-6.361-28.036l-6.388-28.036z" fill="url(#prefix__paint8_radial_1946_3728)" fill-opacity=".58"/><mask id="prefix__a" style="mask-type:alpha" maskUnits="userSpaceOnUse" x="24" y="20" width="10" height="57"><path d="M33.397 20.407H24.29v56.072h9.107V20.407z" fill="url(#prefix__paint9_linear_1946_3728)"/></mask><g mask="url(#prefix__a)"><path fill-rule="evenodd" clip-rule="evenodd" d="M29.856 20.407h-2l-1.77 28.036-1.77 28.036h9.132l-1.77-28.036a5139.74 5139.74 0 01-1.822-28.036z" fill="#3AFF5D" fill-opacity=".27"/></g><defs><linearGradient id="prefix__paint0_linear_1946_3728" x1="29.319" y1="0" x2="29.319" y2="14.52" gradientUnits="userSpaceOnUse"><stop stop-color="#12FF3C"/><stop offset=".571"/><stop offset="1"/></linearGradient><linearGradient id="prefix__paint2_linear_1946_3728" x1="18.52" y1="5.924" x2="18.52" y2="11.651" gradientUnits="userSpaceOnUse"><stop stop-color="#00E621" stop-opacity="0"/><stop offset="1" stop-color="#48FF62"/></linearGradient><linearGradient id="prefix__paint3_linear_1946_3728" x1="39.815" y1="5.915" x2="39.815" y2="11.614" gradientUnits="userSpaceOnUse"><stop stop-color="#00E621" stop-opacity="0"/><stop offset="1" stop-color="#48FF62"/></linearGradient><linearGradient id="prefix__paint4_linear_1946_3728" x1="50.231" y1="10.046" x2="50.231" y2="13.801" gradientUnits="userSpaceOnUse"><stop stop-color="#00E621" stop-opacity="0"/><stop offset="1" stop-color="#48FF62"/></linearGradient><linearGradient id="prefix__paint5_linear_1946_3728" x1="8.556" y1="10.037" x2="8.556" y2="13.804" gradientUnits="userSpaceOnUse"><stop stop-color="#00E621" stop-opacity="0"/><stop offset="1" stop-color="#48FF62"/></linearGradient><linearGradient id="prefix__paint7_linear_1946_3728" x1="20.791" y1="-2.769" x2="20.791" y2="89.646" gradientUnits="userSpaceOnUse"><stop offset=".009" stop-color="#12FF3C"/><stop offset=".196" stop-color="#24DF44" stop-opacity=".921"/><stop offset=".434" stop-color="#8F2371" stop-opacity=".46"/><stop offset=".696" stop-color="#4659FF" stop-opacity=".4"/><stop offset=".849" stop-color="#4659FF" stop-opacity="0"/></linearGradient><linearGradient id="prefix__paint9_linear_1946_3728" x1="27.468" y1="-2.769" x2="27.468" y2="89.646" gradientUnits="userSpaceOnUse"><stop offset=".009" stop-color="#12FF3C"/><stop offset=".196" stop-color="#24DF44" stop-opacity=".921"/><stop offset=".434" stop-color="#8F2371" stop-opacity=".46"/><stop offset=".696" stop-color="#4659FF" stop-opacity=".4"/><stop offset=".849" stop-color="#4659FF" stop-opacity="0"/></linearGradient><radialGradient id="prefix__paint1_radial_1946_3728" cx="0" cy="0" r="1" gradientUnits="userSpaceOnUse" gradientTransform="matrix(0 -24.2287 95.4592 0 29.319 20.406)"><stop stop-color="#00A717"/><stop offset=".608" stop-color="#01E621"/><stop offset=".972" stop-color="#FF16BE"/></radialGradient><radialGradient id="prefix__paint6_radial_1946_3728" cx="0" cy="0" r="1" gradientUnits="userSpaceOnUse" gradientTransform="matrix(0 -6.92248 40.3133 0 29.098 25.945)"><stop stop-color="#00E621"/><stop offset="1" stop-color="#000601"/></radialGradient><radialGradient id="prefix__paint8_radial_1946_3728" cx="0" cy="0" r="1" gradientUnits="userSpaceOnUse" gradientTransform="matrix(0 58.4949 -34.0938 0 28.83 17.984)"><stop offset=".102" stop-color="#BC0087"/><stop offset="1" stop-color="#BC0087" stop-opacity="0"/></radialGradient></defs></svg>