<svg width="89" height="133" fill="none" xmlns="http://www.w3.org/2000/svg"><path d="M88.777 78.627L59.874 61.94 30.971 78.627l28.903 16.687 28.903-16.687z" fill="url(#prefix__paint0_linear_1916_2217)" fill-opacity=".17"/><path d="M88.759 78.457l-.13 37.802-28.297 16.482V95.03L88.76 78.457z" fill="url(#prefix__paint1_linear_1916_2217)" fill-opacity=".17"/><path d="M30.973 78.457l.127 37.802 28.3 16.482V95.03L30.972 78.457z" fill="url(#prefix__paint2_linear_1916_2217)" fill-opacity=".17"/><path d="M31.137 78.457c-.043.087-.043.172-.085.215-.043.127-.043.3-.086.428L59.35 95.668l.343-.557-28.556-16.654z" fill="url(#prefix__paint3_linear_1916_2217)"/><path d="M87.733 78.457c.042.087.042.172.087.215.042.127.042.3.085.428L59.52 95.668l-.343-.557 28.555-16.654z" fill="url(#prefix__paint4_linear_1916_2217)"/><path d="M60.124 95.667l-.427 36.346-.728-36.346c0-.3.257-.557.555-.557.3 0 .6.257.6.557z" fill="url(#prefix__paint5_linear_1916_2217)"/><path d="M17.42 64.843v27.89l13.549 8.887" stroke="url(#prefix__paint6_linear_1916_2217)" stroke-width=".5" stroke-linecap="round"/><path d="M56.65 83.232c1.852 1.069 4.854 1.069 6.706 0 1.851-1.07 1.851-2.803 0-3.872-1.852-1.069-4.854-1.069-6.706 0-1.851 1.07-1.851 2.803 0 3.872z" fill="#030303"/><path d="M57.807 16.687L28.904 0 .001 16.687l28.903 16.687 28.903-16.687z" fill="url(#prefix__paint7_linear_1916_2217)" fill-opacity=".17"/><path d="M57.79 16.517l-.129 37.803-28.297 16.482V33.09l28.427-16.573z" fill="url(#prefix__paint8_linear_1916_2217)" fill-opacity=".17"/><path d="M.001 16.517L.129 54.32l28.298 16.482V33.09L.001 16.517z" fill="url(#prefix__paint9_linear_1916_2217)" fill-opacity=".17"/><path d="M.17 16.517c-.042.087-.042.172-.085.215-.042.128-.042.3-.085.428l28.384 16.569.343-.558L.17 16.517z" fill="url(#prefix__paint10_linear_1916_2217)"/><path d="M56.764 16.517c.043.087.043.172.087.215.043.128.043.3.086.428L28.553 33.729l-.343-.558 28.554-16.654z" fill="url(#prefix__paint11_linear_1916_2217)"/><path d="M29.154 33.728l-.428 36.345-.728-36.345c0-.3.258-.558.556-.558.3 0 .6.258.6.558z" fill="url(#prefix__paint12_linear_1916_2217)"/><path d="M43.804 45.887c1.743-1.006 3.155-3.453 3.155-5.466 0-2.012-1.412-2.828-3.155-1.822-1.743 1.006-3.156 3.454-3.156 5.466 0 2.013 1.413 2.828 3.156 1.822z" fill="#030303"/><path d="M60.004 81.296V52.438l-15.485-9.854" stroke="url(#prefix__paint13_linear_1916_2217)" stroke-width=".5" stroke-linecap="round"/><defs><linearGradient id="prefix__paint0_linear_1916_2217" x1="59.157" y1="60.499" x2="70.717" y2="85.512" gradientUnits="userSpaceOnUse"><stop stop-color="#D9D9D9"/><stop offset="1" stop-color="#D9D9D9" stop-opacity="0"/></linearGradient><linearGradient id="prefix__paint1_linear_1916_2217" x1="82.201" y1="119.554" x2="56.275" y2="87.866" gradientUnits="userSpaceOnUse"><stop stop-color="#D9D9D9"/><stop offset="1" stop-color="#D9D9D9" stop-opacity="0"/></linearGradient><linearGradient id="prefix__paint2_linear_1916_2217" x1="26.029" y1="116.674" x2="70.678" y2="83.546" gradientUnits="userSpaceOnUse"><stop stop-color="#D9D9D9"/><stop offset="1" stop-color="#D9D9D9" stop-opacity="0"/></linearGradient><linearGradient id="prefix__paint3_linear_1916_2217" x1="32.902" y1="80.329" x2="59.149" y2="97.948" gradientUnits="userSpaceOnUse"><stop offset=".009" stop-color="#FF16BE" stop-opacity="0"/><stop offset=".248" stop-color="#FF16BE"/><stop offset=".415" stop-color="#4659FF"/><stop offset=".78" stop-color="#00E621"/></linearGradient><linearGradient id="prefix__paint4_linear_1916_2217" x1="60.591" y1="95.068" x2="88.069" y2="78.393" gradientUnits="userSpaceOnUse"><stop stop-color="#00E621"/><stop offset=".483" stop-color="#4659FF"/><stop offset=".712" stop-color="#FF16BE"/><stop offset=".941" stop-color="#FF16BE" stop-opacity="0"/></linearGradient><linearGradient id="prefix__paint5_linear_1916_2217" x1="59.546" y1="95.11" x2="59.157" y2="131.076" gradientUnits="userSpaceOnUse"><stop stop-color="#00E621"/><stop offset=".436" stop-color="#4659FF"/><stop offset=".769" stop-color="#FF16BE"/><stop offset=".962" stop-color="#FF16BE" stop-opacity="0"/></linearGradient><linearGradient id="prefix__paint6_linear_1916_2217" x1="31.937" y1="102.563" x2="17.133" y2="64.578" gradientUnits="userSpaceOnUse"><stop offset=".019" stop-color="#fff" stop-opacity="0"/><stop offset=".378" stop-color="#fff"/><stop offset=".707" stop-color="#fff"/><stop offset="1" stop-color="#fff" stop-opacity="0"/></linearGradient><linearGradient id="prefix__paint7_linear_1916_2217" x1="28.187" y1="-1.44" x2="39.748" y2="23.573" gradientUnits="userSpaceOnUse"><stop stop-color="#D9D9D9"/><stop offset="1" stop-color="#D9D9D9" stop-opacity="0"/></linearGradient><linearGradient id="prefix__paint8_linear_1916_2217" x1="51.233" y1="57.614" x2="25.307" y2="25.926" gradientUnits="userSpaceOnUse"><stop stop-color="#D9D9D9"/><stop offset="1" stop-color="#D9D9D9" stop-opacity="0"/></linearGradient><linearGradient id="prefix__paint9_linear_1916_2217" x1="-4.943" y1="54.734" x2="39.706" y2="21.606" gradientUnits="userSpaceOnUse"><stop stop-color="#D9D9D9"/><stop offset="1" stop-color="#D9D9D9" stop-opacity="0"/></linearGradient><linearGradient id="prefix__paint10_linear_1916_2217" x1="1.936" y1="18.389" x2="28.183" y2="36.009" gradientUnits="userSpaceOnUse"><stop offset=".009" stop-color="#FF16BE" stop-opacity="0"/><stop offset=".248" stop-color="#FF16BE"/><stop offset=".415" stop-color="#4659FF"/><stop offset=".78" stop-color="#00E621"/></linearGradient><linearGradient id="prefix__paint11_linear_1916_2217" x1="29.623" y1="33.129" x2="57.101" y2="16.453" gradientUnits="userSpaceOnUse"><stop stop-color="#00E621"/><stop offset=".483" stop-color="#4659FF"/><stop offset=".712" stop-color="#FF16BE"/><stop offset=".941" stop-color="#FF16BE" stop-opacity="0"/></linearGradient><linearGradient id="prefix__paint12_linear_1916_2217" x1="28.575" y1="33.17" x2="28.186" y2="69.136" gradientUnits="userSpaceOnUse"><stop stop-color="#00E621"/><stop offset=".436" stop-color="#4659FF"/><stop offset=".769" stop-color="#FF16BE"/><stop offset=".962" stop-color="#FF16BE" stop-opacity="0"/></linearGradient><linearGradient id="prefix__paint13_linear_1916_2217" x1="43.413" y1="41.591" x2="58.058" y2="82.392" gradientUnits="userSpaceOnUse"><stop offset=".019" stop-color="#fff" stop-opacity="0"/><stop offset=".378" stop-color="#fff"/><stop offset=".707" stop-color="#fff"/><stop offset="1" stop-color="#fff" stop-opacity="0"/></linearGradient></defs></svg>