<svg width="51" height="60" fill="none" xmlns="http://www.w3.org/2000/svg"><path d="M25.312 9.346c4.647 0 9.104 1.837 12.39 5.107a17.395 17.395 0 015.133 12.33c0 13.336-11.339 24.619-17.523 24.619-6.185 0-17.524-11.283-17.524-24.618 0-4.625 1.846-9.06 5.133-12.33a17.567 17.567 0 0112.39-5.108zM36.65 29.86c-1.3 0-2.587.272-3.775.799a9.274 9.274 0 00-3.122 2.259 9.19 9.19 0 00-2.328 7.148 9.322 9.322 0 004.071-.476 9.285 9.285 0 003.468-2.176 9.226 9.226 0 002.187-3.45 9.19 9.19 0 00.478-4.053 9.42 9.42 0 00-.979-.051zm-22.677 0c-.33 0-.658.016-.98.051a9.19 9.19 0 00.48 4.052 9.226 9.226 0 002.186 3.451 9.285 9.285 0 003.468 2.176 9.321 9.321 0 004.071.476 9.187 9.187 0 00-.4-3.82 9.222 9.222 0 00-1.927-3.328 9.275 9.275 0 00-3.122-2.259 9.317 9.317 0 00-3.776-.799z" fill="url(#prefix__paint0_radial_1946_3724)"/><path d="M25.312 4.673c5.68 0 11.128 2.212 15.144 6.148 4.017 3.936 6.273 9.275 6.273 14.842 0 16.052-13.858 29.634-21.417 29.634-7.56 0-21.418-13.582-21.418-29.634 0-5.567 2.257-10.906 6.273-14.842 4.017-3.936 9.464-6.148 15.145-6.148zM39.17 29.367c-1.59 0-3.162.328-4.615.962a11.333 11.333 0 00-3.815 2.72 11.061 11.061 0 00-2.357 4.005 10.903 10.903 0 00-.489 4.599c1.682.175 3.382-.021 4.977-.573a11.373 11.373 0 004.238-2.62 11.085 11.085 0 002.673-4.154c.564-1.562.764-3.229.585-4.877a11.697 11.697 0 00-1.197-.062zm-27.717 0c-.403 0-.804.02-1.197.062a10.905 10.905 0 00.585 4.877 11.084 11.084 0 002.673 4.154 11.373 11.373 0 004.238 2.62c1.595.552 3.295.748 4.977.573.168-1.55.001-3.117-.489-4.599a11.063 11.063 0 00-2.356-4.006 11.334 11.334 0 00-3.816-2.719 11.537 11.537 0 00-4.615-.962z" fill="url(#prefix__paint1_radial_1946_3724)" fill-opacity=".46"/><path d="M25.312 0c6.713 0 13.15 2.62 17.898 7.283 4.747 4.663 7.413 10.988 7.413 17.582 0 19.015-16.378 35.104-25.311 35.104C16.378 59.97 0 43.88 0 24.865c0-6.594 2.667-12.919 7.414-17.582S18.599 0 25.312 0zM41.69 29.253c-1.88 0-3.737.388-5.454 1.14a13.392 13.392 0 00-4.51 3.22 13.11 13.11 0 00-2.784 4.746 12.943 12.943 0 00-.578 5.448 13.626 13.626 0 005.881-.68 13.435 13.435 0 005.01-3.102 13.136 13.136 0 003.158-4.921c.666-1.851.902-3.825.691-5.778-.47-.048-.942-.073-1.414-.073zm-32.756 0c-.477 0-.95.024-1.415.073a12.947 12.947 0 00.691 5.778 13.135 13.135 0 003.159 4.92 13.435 13.435 0 005.01 3.104c1.883.654 3.893.886 5.88.679a12.945 12.945 0 00-.577-5.448 13.11 13.11 0 00-2.785-4.745 13.393 13.393 0 00-4.51-3.221 13.604 13.604 0 00-5.453-1.14z" fill="url(#prefix__paint2_radial_1946_3724)" fill-opacity=".07"/><defs><radialGradient id="prefix__paint0_radial_1946_3724" cx="0" cy="0" r="1" gradientUnits="userSpaceOnUse" gradientTransform="matrix(0 42.0563 -35.047 0 25.312 9.346)"><stop stop-color="#01D81F"/><stop offset="1" stop-color="#07A81E"/></radialGradient><radialGradient id="prefix__paint1_radial_1946_3724" cx="0" cy="0" r="1" gradientUnits="userSpaceOnUse" gradientTransform="matrix(0 50.6234 -42.8352 0 25.312 4.673)"><stop stop-color="#01D81F"/><stop offset="1" stop-color="#07A81E"/></radialGradient><radialGradient id="prefix__paint2_radial_1946_3724" cx="0" cy="0" r="1" gradientUnits="userSpaceOnUse" gradientTransform="matrix(0 59.9692 -50.6234 0 25.312 0)"><stop stop-color="#01D81F"/><stop offset="1" stop-color="#07A81E"/></radialGradient></defs></svg>