<svg width="93" height="180" fill="none" xmlns="http://www.w3.org/2000/svg"><g filter="url(#prefix__filter0_f_1916_2168)"><path d="M76.119 147.505L46.137 164 16.02 147.2l29.936-15.796 30.163 16.101z" fill="#000" fill-opacity=".54"/></g><path d="M15 141.701l31.554 18.373 32.034-18.41-31.629-18.409L15 141.701z" fill="url(#prefix__paint0_radial_1916_2168)"/><path d="M25.421 147.741l21.209 12.335 21.502-12.372-21.245-12.371-21.466 12.408z" fill="url(#prefix__paint1_radial_1916_2168)"/><path d="M27.225 64.174v74.688l19.317 12.914.037-76.343-19.354-11.259z" fill="url(#prefix__paint2_linear_1916_2168)"/><path d="M65.932 64.174v74.688l-19.317 12.914-.037-76.343 19.354-11.259z" fill="url(#prefix__paint3_linear_1916_2168)"/><path d="M66.22 63.207L46.722 51.95 27.224 63.207l19.498 11.257L66.22 63.207z" fill="#272828"/><path opacity=".53" d="M66.221 0l-.001 61.17-19.498 11.257L27.225 61.17V0h38.996z" fill="url(#prefix__paint4_linear_1916_2168)"/><path d="M51.67 73.342v29.54" stroke="url(#prefix__paint5_linear_1916_2168)"/><path d="M62.876 67.23v29.54" stroke="url(#prefix__paint6_linear_1916_2168)"/><path d="M57.782 90.658V120.2" stroke="url(#prefix__paint7_linear_1916_2168)"/><path d="M50.651 116.124v29.541" stroke="url(#prefix__paint8_linear_1916_2168)"/><path d="M62.876 110.012v29.541" stroke="url(#prefix__paint9_linear_1916_2168)"/><path d="M30.279 66.211v29.54" stroke="url(#prefix__paint10_linear_1916_2168)"/><path d="M36.392 84.547v29.54" stroke="url(#prefix__paint11_linear_1916_2168)"/><path d="M30.279 102.882v29.54" stroke="url(#prefix__paint12_linear_1916_2168)"/><path d="M40.465 115.106v29.54" stroke="url(#prefix__paint13_linear_1916_2168)"/><path d="M45.542 99.686v3.189l27.521-15.911v-3.19L45.542 99.687z" fill="url(#prefix__paint14_linear_1916_2168)"/><path d="M45.54 102.874v-3.19L18.053 83.81V87l27.485 15.875z" fill="url(#prefix__paint15_linear_1916_2168)"/><path d="M65.428 79.402l.035 4.372h.072L45.539 95.35 25.58 83.81l.215-.108v-4.37l-7.74 4.478L45.54 99.684l27.521-15.91-7.632-4.372z" fill="url(#prefix__paint16_radial_1916_2168)"/><path d="M45.542 121.199v3.19l27.521-15.911v-3.189l-27.521 15.91z" fill="url(#prefix__paint17_linear_1916_2168)"/><path d="M45.54 124.388v-3.19l-27.486-15.874v3.189l27.485 15.875z" fill="url(#prefix__paint18_linear_1916_2168)"/><path d="M65.428 100.916l.035 4.372h.072l-19.996 11.575-19.96-11.539.215-.107v-4.372l-7.74 4.479 27.485 15.875 27.521-15.911-7.632-4.372z" fill="url(#prefix__paint19_radial_1916_2168)"/><path d="M45.542 140.553v3.19l27.521-15.911v-3.189l-27.521 15.91z" fill="url(#prefix__paint20_linear_1916_2168)"/><path d="M45.54 143.742v-3.189l-27.486-15.875v3.19l27.485 15.874z" fill="url(#prefix__paint21_linear_1916_2168)"/><path d="M65.428 120.27l.035 4.372h.072l-19.996 11.575-19.96-11.539.215-.107v-4.372l-7.74 4.479 27.485 15.875 27.521-15.911-7.632-4.372z" fill="url(#prefix__paint22_radial_1916_2168)"/><defs><linearGradient id="prefix__paint2_linear_1916_2168" x1="36.404" y1="151.778" x2="36.404" y2="64.189" gradientUnits="userSpaceOnUse"><stop offset="0" stop-color="#111"/><stop offset=".533" stop-color="#151616"/><stop offset="1" stop-color="#1C1C1C"/></linearGradient><linearGradient id="prefix__paint3_linear_1916_2168" x1="30.789" y1="114.087" x2="71.025" y2="56.025" gradientUnits="userSpaceOnUse"><stop offset="0" stop-color="#1F1F1F"/><stop offset=".533" stop-color="#151616"/></linearGradient><linearGradient id="prefix__paint4_linear_1916_2168" x1="46.579" y1="70.286" x2="46.579" y2="26.485" gradientUnits="userSpaceOnUse"><stop stop-color="#00E621"/><stop offset=".433" stop-color="#4659FF"/><stop offset=".979" stop-color="#4659FF" stop-opacity="0"/></linearGradient><linearGradient id="prefix__paint5_linear_1916_2168" x1="0" y1="0" x2="0" y2="0" gradientUnits="userSpaceOnUse"><stop offset=".05" stop-color="#7D7D7D" stop-opacity="0"/><stop offset=".582" stop-color="#7D7D7D"/><stop offset="1" stop-color="#7D7D7D" stop-opacity="0"/></linearGradient><linearGradient id="prefix__paint6_linear_1916_2168" x1="0" y1="0" x2="0" y2="0" gradientUnits="userSpaceOnUse"><stop offset=".05" stop-color="#7D7D7D" stop-opacity="0"/><stop offset=".582" stop-color="#7D7D7D"/><stop offset="1" stop-color="#7D7D7D" stop-opacity="0"/></linearGradient><linearGradient id="prefix__paint7_linear_1916_2168" x1="0" y1="0" x2="0" y2="0" gradientUnits="userSpaceOnUse"><stop offset=".05" stop-color="#7D7D7D" stop-opacity="0"/><stop offset=".582" stop-color="#7D7D7D"/><stop offset="1" stop-color="#7D7D7D" stop-opacity="0"/></linearGradient><linearGradient id="prefix__paint8_linear_1916_2168" x1="0" y1="0" x2="0" y2="0" gradientUnits="userSpaceOnUse"><stop offset=".05" stop-color="#7D7D7D" stop-opacity="0"/><stop offset=".582" stop-color="#7D7D7D"/><stop offset="1" stop-color="#7D7D7D" stop-opacity="0"/></linearGradient><linearGradient id="prefix__paint9_linear_1916_2168" x1="0" y1="0" x2="0" y2="0" gradientUnits="userSpaceOnUse"><stop offset=".05" stop-color="#7D7D7D" stop-opacity="0"/><stop offset=".582" stop-color="#7D7D7D"/><stop offset="1" stop-color="#7D7D7D" stop-opacity="0"/></linearGradient><linearGradient id="prefix__paint10_linear_1916_2168" x1="0" y1="0" x2="0" y2="0" gradientUnits="userSpaceOnUse"><stop offset=".05" stop-color="#7D7D7D" stop-opacity="0"/><stop offset=".582" stop-color="#7D7D7D"/><stop offset="1" stop-color="#7D7D7D" stop-opacity="0"/></linearGradient><linearGradient id="prefix__paint11_linear_1916_2168" x1="0" y1="0" x2="0" y2="0" gradientUnits="userSpaceOnUse"><stop offset=".05" stop-color="#7D7D7D" stop-opacity="0"/><stop offset=".582" stop-color="#7D7D7D"/><stop offset="1" stop-color="#7D7D7D" stop-opacity="0"/></linearGradient><linearGradient id="prefix__paint12_linear_1916_2168" x1="0" y1="0" x2="0" y2="0" gradientUnits="userSpaceOnUse"><stop offset=".05" stop-color="#7D7D7D" stop-opacity="0"/><stop offset=".582" stop-color="#7D7D7D"/><stop offset="1" stop-color="#7D7D7D" stop-opacity="0"/></linearGradient><linearGradient id="prefix__paint13_linear_1916_2168" x1="0" y1="0" x2="0" y2="0" gradientUnits="userSpaceOnUse"><stop offset=".05" stop-color="#7D7D7D" stop-opacity="0"/><stop offset=".582" stop-color="#7D7D7D"/><stop offset="1" stop-color="#7D7D7D" stop-opacity="0"/></linearGradient><linearGradient id="prefix__paint14_linear_1916_2168" x1="54.728" y1="95.242" x2="79.175" y2="80.472" gradientUnits="userSpaceOnUse"><stop stop-color="#142F18"/><stop offset="1" stop-color="#00E621"/></linearGradient><linearGradient id="prefix__paint15_linear_1916_2168" x1="54.216" y1="108.485" x2="20.601" y2="88.112" gradientUnits="userSpaceOnUse"><stop offset=".248" stop-color="#4659FF"/><stop offset="1" stop-color="#141A4D"/></linearGradient><linearGradient id="prefix__paint17_linear_1916_2168" x1="54.728" y1="116.756" x2="79.175" y2="101.986" gradientUnits="userSpaceOnUse"><stop stop-color="#142F18"/><stop offset="1" stop-color="#00E621"/></linearGradient><linearGradient id="prefix__paint18_linear_1916_2168" x1="54.216" y1="129.998" x2="20.601" y2="109.626" gradientUnits="userSpaceOnUse"><stop offset=".248" stop-color="#4659FF"/><stop offset="1" stop-color="#141A4D"/></linearGradient><linearGradient id="prefix__paint20_linear_1916_2168" x1="54.728" y1="136.11" x2="79.175" y2="121.34" gradientUnits="userSpaceOnUse"><stop stop-color="#142F18"/><stop offset="1" stop-color="#00E621"/></linearGradient><linearGradient id="prefix__paint21_linear_1916_2168" x1="54.216" y1="149.353" x2="20.601" y2="128.98" gradientUnits="userSpaceOnUse"><stop offset=".248" stop-color="#4659FF"/><stop offset="1" stop-color="#141A4D"/></linearGradient><radialGradient id="prefix__paint0_radial_1916_2168" cx="0" cy="0" r="1" gradientUnits="userSpaceOnUse" gradientTransform="matrix(0 -26.9938 46.6183 0 46.794 148.211)"><stop stop-color="#4659FF"/><stop offset=".408" stop-color="#00E621"/><stop offset=".688" stop-color="#2B3588"/></radialGradient><radialGradient id="prefix__paint1_radial_1916_2168" cx="0" cy="0" r="1" gradientUnits="userSpaceOnUse" gradientTransform="translate(46.515 159.535) scale(24.5049)"><stop offset=".234" stop-color="#4659FF"/><stop offset="1" stop-color="#006E21"/></radialGradient><radialGradient id="prefix__paint16_radial_1916_2168" cx="0" cy="0" r="1" gradientUnits="userSpaceOnUse" gradientTransform="rotate(154.239 30.596 47.193) scale(58.1671 111.855)"><stop offset=".156" stop-color="#00E621"/><stop offset=".575" stop-color="#4659FF"/><stop offset=".848" stop-color="#231F20"/><stop offset="1" stop-color="#231F20"/></radialGradient><radialGradient id="prefix__paint19_radial_1916_2168" cx="0" cy="0" r="1" gradientUnits="userSpaceOnUse" gradientTransform="rotate(154.239 28.137 57.95) scale(58.1671 111.855)"><stop offset=".156" stop-color="#00E621"/><stop offset=".575" stop-color="#4659FF"/><stop offset=".848" stop-color="#231F20"/><stop offset="1" stop-color="#231F20"/></radialGradient><radialGradient id="prefix__paint22_radial_1916_2168" cx="0" cy="0" r="1" gradientUnits="userSpaceOnUse" gradientTransform="rotate(154.239 25.924 67.627) scale(58.1671 111.855)"><stop offset=".156" stop-color="#00E621"/><stop offset=".575" stop-color="#4659FF"/><stop offset=".848" stop-color="#231F20"/><stop offset="1" stop-color="#231F20"/></radialGradient><filter id="prefix__filter0_f_1916_2168" x=".02" y="115.404" width="92.1" height="64.596" filterUnits="userSpaceOnUse" color-interpolation-filters="sRGB"><feFlood flood-opacity="0" result="BackgroundImageFix"/><feBlend in="SourceGraphic" in2="BackgroundImageFix" result="shape"/><feGaussianBlur stdDeviation="8" result="effect1_foregroundBlur_1916_2168"/></filter></defs></svg>