<svg width="67" height="67" fill="none" xmlns="http://www.w3.org/2000/svg"><path d="M33.264 0a33.5 33.5 0 0129.102 50.5l-4.041-2.38A28.81 28.81 0 0033.297 4.69L33.264 0z" fill="#01DE20"/><path d="M62.009 51.093A33.5 33.5 0 0124.293 65.71l1.29-4.51a28.81 28.81 0 0032.434-12.57l3.992 2.463z" fill="#4659FF"/><path d="M23.354 65.427A33.5 33.5 0 013.75 48.9l4.165-2.156a28.81 28.81 0 0016.86 14.212l-1.42 4.47z" fill="#5D1D6A"/><path d="M3.353 48.108A33.5 33.5 0 014.35 16.99l4.081 2.312a28.81 28.81 0 00-.859 26.762l-4.22 2.045z" fill="#FF16BE"/><path d="M4.76 16.288A33.5 33.5 0 0132.565.014l.13 4.688A28.81 28.81 0 008.784 18.698l-4.023-2.41z" fill="#404040"/></svg>