<svg width="100" height="97" fill="none" xmlns="http://www.w3.org/2000/svg"><path d="M99.396 47.05c0 25.984-21.495 47.05-48.01 47.05-26.515 0-48.01-21.066-48.01-47.05C3.376 21.065 24.871 0 51.386 0c26.515 0 48.01 21.065 48.01 47.05z" fill="url(#prefix__paint0_linear_1916_2201)"/><g filter="url(#prefix__filter0_i_1916_2201)"><path d="M47.04 96.02c25.987 0 47.04-21.062 47.04-47.043C94.08 23 73.027 1.94 47.04 1.94S0 23 0 48.977C0 74.958 21.053 96.02 47.04 96.02z" fill="url(#prefix__paint1_radial_1916_2201)"/></g><g filter="url(#prefix__filter1_f_1916_2201)"><path d="M52.332 50.175c0 .39.042.841.042 1.227 0 8.842-7.154 16.005-15.982 16.005-8.87 0-16.025-7.163-16.025-16.005 0-8.837 7.155-16.002 16.025-16.002 8.367 0 15.271 6.452 15.94 14.775z" fill="#1A1A1A"/></g><path d="M40.167 16.488c-17.875 0-32.406 14.546-32.406 32.5 0 17.938 14.531 32.483 32.406 32.483 18.042 0 32.576-14.545 32.576-32.484 0-17.954-14.534-32.499-32.576-32.499z" fill="url(#prefix__paint2_linear_1916_2201)"/><path d="M37.446 73.642c11.985 0 21.731-9.752 21.731-21.793 0-12.03-9.746-21.781-21.731-21.781-12.098 0-21.844 9.752-21.844 21.781 0 12.04 9.746 21.793 21.844 21.793z" fill="#141414"/><path d="M34.459 63.042c6.135 0 11.125-4.993 11.125-11.155 0-6.159-4.99-11.152-11.125-11.152-6.194 0-11.183 4.993-11.183 11.152 0 6.162 4.99 11.155 11.183 11.155z" fill="url(#prefix__paint3_linear_1916_2201)"/><path d="M34.486 60.203c4.555 0 8.258-3.706 8.258-8.282 0-4.57-3.703-8.277-8.258-8.277-4.597 0-8.3 3.706-8.3 8.277 0 4.576 3.703 8.282 8.3 8.282z" fill="url(#prefix__paint4_radial_1916_2201)"/><defs><linearGradient id="prefix__paint0_linear_1916_2201" x1="104.784" y1="-32.647" x2="46.049" y2="100.269" gradientUnits="userSpaceOnUse"><stop offset=".298" stop-color="#2C39A9"/><stop offset=".778" stop-color="#161616"/></linearGradient><linearGradient id="prefix__paint2_linear_1916_2201" x1="65.469" y1="26.672" x2="16.003" y2="82.44" gradientUnits="userSpaceOnUse"><stop stop-color="#141414"/><stop offset="1" stop-color="#141414" stop-opacity=".44"/></linearGradient><linearGradient id="prefix__paint3_linear_1916_2201" x1="23.219" y1="51.881" x2="45.584" y2="51.881" gradientUnits="userSpaceOnUse"><stop stop-color="#231F20"/><stop offset=".344" stop-color="#323031"/><stop offset="1" stop-color="#58595B"/></linearGradient><radialGradient id="prefix__paint1_radial_1916_2201" cx="0" cy="0" r="1" gradientUnits="userSpaceOnUse" gradientTransform="matrix(-89.59873 116.85177 -277.20047 -212.5497 103.663 -11.619)"><stop offset=".156" stop-color="#00E621"/><stop offset=".575" stop-color="#4659FF"/><stop offset=".848" stop-color="#231F20"/><stop offset="1" stop-color="#231F20"/></radialGradient><radialGradient id="prefix__paint4_radial_1916_2201" cx="0" cy="0" r="1" gradientUnits="userSpaceOnUse" gradientTransform="rotate(66.801 -16.988 45.585) scale(17.7301 17.7438)"><stop offset=".019" stop-color="#E3FFE8"/><stop offset=".392" stop-color="#4FD166"/><stop offset=".8" stop-color="#4659FF"/></radialGradient><filter id="prefix__filter0_i_1916_2201" x="0" y="1.939" width="94.08" height="98.08" filterUnits="userSpaceOnUse" color-interpolation-filters="sRGB"><feFlood flood-opacity="0" result="BackgroundImageFix"/><feBlend in="SourceGraphic" in2="BackgroundImageFix" result="shape"/><feColorMatrix in="SourceAlpha" values="0 0 0 0 0 0 0 0 0 0 0 0 0 0 0 0 0 0 127 0" result="hardAlpha"/><feOffset dy="4"/><feGaussianBlur stdDeviation="5"/><feComposite in2="hardAlpha" operator="arithmetic" k2="-1" k3="1"/><feColorMatrix values="0 0 0 0 0.316667 0 0 0 0 0.316667 0 0 0 0 0.316667 0 0 0 1 0"/><feBlend in2="shape" result="effect1_innerShadow_1916_2201"/></filter><filter id="prefix__filter1_f_1916_2201" x="8.367" y="23.4" width="56.007" height="56.007" filterUnits="userSpaceOnUse" color-interpolation-filters="sRGB"><feFlood flood-opacity="0" result="BackgroundImageFix"/><feBlend in="SourceGraphic" in2="BackgroundImageFix" result="shape"/><feGaussianBlur stdDeviation="6" result="effect1_foregroundBlur_1916_2201"/></filter></defs></svg>